<svg width="18" height="20" viewBox="0 0 18 20" fill="none" xmlns="http://www.w3.org/2000/svg">
<path d="M15.75 7.14708H11.0175L11.73 3.51796L11.7525 3.26384C11.7525 2.93826 11.625 2.63649 11.4225 2.42208L10.6275 1.58826L5.6925 6.82149C5.415 7.10737 5.25 7.50443 5.25 7.9412V15.8824C5.25 16.7559 5.925 17.4706 6.75 17.4706H13.5C14.1225 17.4706 14.655 17.0736 14.88 16.5018L17.145 10.9033C17.2125 10.7206 17.25 10.53 17.25 10.3236V8.73532C17.25 7.86179 16.575 7.14708 15.75 7.14708ZM15.75 10.3236L13.5 15.8824H6.75V7.9412L10.005 4.49473L9.1725 8.73532H15.75V10.3236ZM0.75 7.9412H3.75V17.4706H0.75V7.9412Z" fill="black"/>
</svg>
